{"glyphs":{"0":{"ha":612,"x_min":26,"x_max":648,"o":"m 370 693 q 348 684 362 682 q 199 601 277 688 q 102 450 138 532 q 60 263 60 353 q 308 15 60 15 q 522 88 433 15 q 614 279 614 164 q 541 495 614 380 q 379 663 471 604 q 370 693 361 673 m 308 -20 q 101 53 174 -20 q 26 263 26 126 q 72 463 26 357 q 180 635 114 559 q 351 732 269 738 q 372 720 366 732 q 372 697 377 709 q 405 704 385 717 q 574 519 503 643 q 648 279 648 392 q 544 62 648 148 q 308 -20 445 -20 z "},"1":{"ha":166,"x_min":44,"x_max":122,"o":"m 85 153 l 86 5 q 69 -14 86 -14 q 52 5 52 -14 l 53 155 q 70 397 53 245 q 90 638 88 555 q 64 620 77 620 q 44 646 44 620 q 47 659 44 653 q 108 720 83 713 q 122 701 122 722 q 85 153 122 482 z "},"2":{"ha":490,"x_min":-8,"x_max":518,"o":"m 454 -22 q 252 -15 414 -22 q 7 -8 90 -8 q -7 6 -8 -8 q 3 18 -3 11 q 147 214 53 101 q 302 400 288 381 q 391 514 347 457 q 441 645 441 588 q 317 696 441 696 q 167 669 239 696 q 58 583 82 636 q 43 572 54 572 q 24 589 24 572 q 26 597 24 593 q 154 702 55 665 q 317 731 233 731 q 477 645 477 731 q 424 503 477 581 q 328 380 376 441 q 184 206 304 349 q 47 26 94 100 q 272 18 124 25 q 454 12 416 12 l 468 12 q 501 20 457 12 q 518 13 518 24 q 512 -3 518 7 q 454 -22 501 -22 z "},"3":{"ha":600,"x_min":14,"x_max":635,"o":"m 284 -14 q 18 81 83 -14 q 14 91 14 86 q 33 108 14 108 q 47 100 41 108 q 284 20 101 20 q 496 85 400 20 q 601 263 601 157 q 506 421 601 364 q 298 471 422 471 q 249 465 280 471 q 200 456 212 458 q 176 473 176 454 q 193 491 176 485 q 471 621 401 563 q 491 656 491 638 q 428 686 491 686 q 183 623 292 686 q 170 618 177 618 q 146 644 146 618 q 158 663 146 656 q 428 718 252 718 q 524 656 524 718 q 436 562 524 610 q 316 503 382 532 q 531 444 444 499 q 635 263 635 379 q 518 61 635 143 q 284 -14 412 -14 z "},"4":{"ha":629,"x_min":-6,"x_max":666,"o":"m 388 195 q 390 276 390 240 q 408 593 390 389 q 362 544 391 576 q 222 357 292 451 q 71 183 134 241 q 388 195 149 184 m 452 715 l 452 715 l 452 715 l 452 715 m 431 721 q 435 721 433 721 q 450 725 441 725 q 474 701 474 725 q 446 635 474 672 q 424 276 424 378 q 422 196 424 240 q 648 202 561 202 q 666 184 666 202 q 648 165 666 165 q 421 160 560 165 q 419 73 419 107 q 433 -174 419 16 q 414 -194 435 -194 q 395 -176 396 -194 q 384 73 384 -24 q 387 159 384 106 q 19 149 113 149 q 4 172 -6 149 q 26 199 15 199 q 32 197 30 198 q 193 373 107 261 q 336 565 264 469 q 414 667 366 597 q 418 717 416 693 q 431 721 418 727 z "},"5":{"ha":541,"x_min":14,"x_max":572,"o":"m 222 4 q 19 94 122 4 q 14 106 14 100 q 30 123 14 123 q 41 119 36 123 q 222 37 134 37 q 436 107 340 37 q 539 292 539 183 q 478 428 539 372 q 333 484 416 484 q 185 446 243 484 q 75 342 165 432 l 68 332 q 54 324 62 324 q 35 342 35 324 q 50 368 35 348 q 74 458 61 391 q 94 555 90 539 q 134 665 108 591 q 124 678 124 669 q 178 715 124 714 q 497 730 217 715 q 514 713 514 731 q 498 697 514 698 q 178 679 159 679 q 174 680 176 679 q 128 545 158 635 q 106 443 122 515 l 103 429 q 333 519 199 519 q 501 453 430 519 q 572 292 572 387 q 455 81 572 165 q 222 4 350 4 z "},"6":{"ha":579,"x_min":17,"x_max":613,"o":"m 90 146 q 288 26 162 25 q 485 73 409 28 q 581 246 581 130 q 517 372 581 322 q 372 420 457 420 q 176 357 265 420 q 77 187 77 287 q 88 164 77 180 q 90 146 94 155 m 288 -3 q 91 94 170 -3 q 17 304 17 185 q 116 575 17 448 q 362 711 222 711 q 414 701 382 711 q 463 687 448 688 q 477 671 477 685 q 459 654 477 652 q 411 670 445 656 q 362 682 381 682 q 139 557 237 682 q 46 304 46 438 q 52 244 46 274 q 180 399 78 338 q 372 452 273 452 q 538 397 468 452 q 613 246 613 338 q 511 49 613 113 q 288 -3 427 -3 z "},"7":{"ha":503,"x_min":-20,"x_max":530,"o":"m 131 -48 l 128 -51 l 131 -45 q 138 3 132 -20 q 159 22 142 20 q 189 119 161 28 q 252 293 216 203 q 191 298 210 292 q 180 314 180 302 q 197 332 180 332 q 203 330 200 332 q 267 328 218 325 q 456 667 361 553 q 382 664 427 664 q 299 666 350 664 q 238 668 249 668 q 122 670 188 668 q 5 672 56 672 q -20 696 -20 672 q 5 721 -20 721 q 122 711 56 721 q 238 702 188 702 q 299 700 249 702 q 382 699 350 699 q 503 713 482 699 q 513 718 508 718 q 530 701 530 718 q 523 686 530 692 q 306 332 422 610 q 389 339 377 339 q 407 321 407 339 q 357 298 407 304 q 291 296 323 297 q 223 109 250 196 q 170 -51 204 45 l 170 -57 l 168 -54 q 163 -61 165 -60 q 150 -67 157 -67 q 131 -48 133 -67 z "},"8":{"ha":500,"x_min":24,"x_max":528,"o":"m 243 425 q 296 439 275 439 q 343 432 319 439 q 430 548 430 469 q 321 692 430 646 q 314 692 317 691 q 204 649 258 694 q 149 545 149 602 q 177 473 149 507 q 243 425 205 439 m 328 392 q 315 385 323 385 q 144 331 224 382 q 56 201 56 275 q 134 71 56 128 q 292 17 208 17 q 429 68 367 17 q 495 195 495 122 q 448 314 495 254 q 340 396 401 375 q 328 392 334 394 m 292 -16 q 115 44 199 -16 q 24 201 24 111 q 86 328 24 270 q 212 401 137 374 l 212 403 q 116 545 116 451 q 172 662 116 596 q 290 732 231 732 q 321 726 307 732 q 332 726 326 728 q 465 548 465 684 q 382 415 465 465 q 485 319 443 382 q 528 195 528 256 q 450 43 528 106 q 292 -16 378 -16 z "},"9":{"ha":450,"x_min":-1,"x_max":474,"o":"m 437 446 q 436 470 437 458 q 439 481 436 477 q 322 679 437 654 q 313 676 318 676 q 136 631 226 676 q 32 509 32 581 q 113 369 32 428 q 280 314 189 314 q 385 350 342 314 q 437 446 427 387 m 172 -23 q 164 -24 168 -24 q 149 -7 149 -24 q 159 7 149 3 q 317 138 245 44 q 419 335 388 228 q 280 281 364 281 q 94 342 179 281 q -1 509 -1 410 q 88 640 -1 582 q 260 707 164 690 q 277 719 264 719 q 474 477 474 719 q 472 443 474 459 q 379 168 468 306 q 172 -23 290 27 z "}," ":{"ha":403,"x_min":0,"x_max":0,"o":""},"!":{"ha":184,"x_min":47,"x_max":140,"o":"m 66 192 q 82 441 68 277 q 98 695 96 600 q 94 754 98 717 q 90 809 90 791 q 96 827 90 818 q 117 841 102 841 q 140 817 140 841 q 136 802 140 809 q 128 694 132 768 q 113 427 127 597 q 96 159 98 248 q 95 155 96 157 q 99 88 95 100 q 100 83 100 85 q 83 65 100 65 q 67 78 71 65 q 64 96 66 83 q 64 187 63 121 q 66 192 64 190 m 60 4 q 58 23 54 13 q 74 33 62 33 q 106 3 106 31 q 71 -32 106 -32 q 60 -31 65 -32 q 47 -14 47 -27 q 60 4 47 2 z "},"\"":{"ha":228,"x_min":61,"x_max":180,"o":"m 133 764 q 137 855 133 800 q 142 935 142 911 q 159 952 142 952 q 176 935 176 952 q 178 855 176 911 q 180 764 180 800 q 157 740 180 741 q 133 764 133 739 m 73 774 q 62 930 73 894 q 61 935 61 932 q 78 951 61 951 q 93 939 90 951 q 112 774 112 877 q 92 754 112 754 q 73 774 73 754 z "},"#":{"ha":506,"x_min":0,"x_max":465,"o":"m 213 329 q 217 277 216 303 q 277 286 239 280 l 277 330 q 213 329 250 330 m 186 96 q 173 134 155 106 q 170 239 174 176 q 59 236 107 236 q 42 253 42 236 q 59 270 42 270 q 88 270 68 270 q 116 269 106 269 q 168 272 140 270 q 164 327 167 299 q 18 315 78 323 q 0 332 0 313 q 14 347 0 345 q 161 364 83 357 q 148 465 155 422 q 173 492 144 492 q 197 472 193 492 q 210 368 203 429 q 279 373 246 372 q 290 493 284 410 q 307 509 291 509 q 323 492 323 509 q 314 375 321 435 q 432 374 389 378 q 454 347 456 371 q 427 325 452 322 q 309 330 382 329 l 309 290 q 441 302 393 302 q 465 278 465 302 q 441 253 465 253 q 309 249 387 253 l 310 73 q 293 56 310 56 q 276 73 276 56 l 276 246 l 220 243 q 222 118 224 165 q 186 96 221 105 z "},"$":{"ha":427,"x_min":7,"x_max":403,"o":"m 277 384 q 278 250 278 312 q 279 114 278 140 q 369 218 369 146 q 277 384 369 326 m 153 481 l 152 521 l 144 555 q 143 639 144 591 q 112 618 125 629 q 74 564 74 589 q 153 481 74 522 m 184 70 q 182 5 183 36 l 189 4 q 164 -22 189 -22 q 140 4 140 -22 l 148 6 q 151 77 149 39 q 10 289 35 114 q 35 317 7 317 q 59 296 56 317 q 151 119 78 154 q 153 444 153 210 q 41 564 41 499 q 142 680 41 623 q 140 783 140 743 q 164 808 140 808 q 189 783 189 808 q 190 703 189 749 q 224 715 208 710 q 224 780 224 749 q 248 805 224 805 q 273 780 273 805 l 273 726 q 280 726 277 726 q 305 702 305 727 q 281 677 305 677 l 273 677 q 277 422 275 592 q 358 355 336 389 q 403 218 403 288 q 366 130 403 171 q 281 76 332 92 q 285 31 283 53 q 300 -64 291 -1 q 286 -83 302 -81 q 267 -68 269 -85 q 252 27 262 -39 q 249 68 250 48 q 226 67 237 67 q 184 70 204 67 m 185 428 q 185 108 186 194 q 226 104 204 104 q 247 106 236 104 q 245 250 245 136 q 241 404 245 319 q 185 428 223 411 m 185 521 l 185 466 l 191 463 q 239 441 207 456 q 226 670 235 517 q 191 660 209 666 q 193 555 193 595 l 185 521 z "},"%":{"ha":481,"x_min":29,"x_max":466,"o":"m 166 680 q 155 675 162 675 q 85 584 98 671 q 124 587 99 584 q 161 626 142 594 q 176 677 179 659 q 166 680 172 679 m 258 305 q 105 -35 203 192 l 68 -131 q 52 -144 64 -144 q 29 -110 29 -144 q 33 -89 29 -100 q 39 -61 34 -79 q 62 -47 45 -45 q 73 -22 71 -25 q 147 151 98 45 q 226 319 214 292 q 403 682 286 439 q 279 685 380 676 q 244 680 264 686 q 210 673 220 673 q 187 604 210 642 q 136 555 163 565 q 87 551 120 549 q 50 570 49 553 q 135 705 60 687 q 150 715 139 713 l 150 715 l 151 715 q 180 719 174 720 q 206 722 188 722 q 282 707 229 716 q 358 703 347 702 q 414 724 393 704 q 436 754 428 738 l 436 755 q 448 766 441 766 q 464 743 461 766 l 466 742 l 464 737 q 454 709 465 718 l 450 705 q 258 305 382 568 m 384 144 q 380 138 382 141 q 340 12 347 106 q 377 17 372 14 q 425 102 420 45 q 384 144 427 132 m 396 -13 q 347 -23 385 -21 q 317 -20 328 -24 q 304 -3 303 -15 q 314 83 311 66 q 353 159 324 130 q 353 177 349 168 q 368 186 358 186 q 374 186 372 186 q 437 160 419 173 q 461 99 465 139 q 396 -13 455 26 z "},"&":{"ha":444,"x_min":12,"x_max":434,"o":"m 194 632 l 194 633 l 194 659 q 194 632 194 646 m 186 164 q 195 186 189 172 q 212 202 195 207 q 227 186 227 204 l 235 165 q 391 256 328 190 q 409 264 399 264 q 434 239 434 264 q 427 222 434 230 q 228 125 353 145 l 229 -96 q 211 -113 229 -113 q 193 -96 193 -113 l 195 121 q 127 117 163 117 q 52 137 85 117 q 12 199 12 160 q 161 347 12 296 q 61 384 61 354 q 190 488 61 465 q 192 572 191 513 q 186 588 186 578 l 194 632 q 194 659 194 646 q 211 677 194 677 q 228 659 228 677 l 228 633 l 235 588 q 226 568 235 574 q 224 492 225 543 l 229 492 q 304 494 303 494 q 324 470 324 490 q 296 445 324 440 q 262 454 288 446 q 229 460 242 460 l 222 460 q 207 450 219 450 q 193 456 198 450 q 94 391 104 439 q 170 378 122 381 q 248 373 210 375 q 265 357 265 371 q 252 340 265 345 q 123 296 138 304 q 44 199 44 258 q 127 152 44 152 q 188 156 159 152 q 186 164 186 159 z "},"’":{"ha":136,"x_min":38,"x_max":104,"o":"m 75 951 q 104 854 104 909 q 84 764 104 809 q 66 752 79 752 q 45 772 45 752 q 47 781 45 776 q 63 854 63 817 q 41 929 63 897 q 38 941 38 935 q 59 961 38 961 q 75 951 69 961 z "},"(":{"ha":266,"x_min":31,"x_max":250,"o":"m 237 -68 q 212 -67 224 -81 q 31 359 31 128 q 149 783 31 576 q 150 804 148 789 q 172 821 155 821 q 197 797 197 821 q 195 788 197 793 q 177 766 189 781 q 64 359 64 570 q 238 -41 64 146 q 237 -68 250 -55 z "},")":{"ha":225,"x_min":9,"x_max":193,"o":"m 81 -46 q 64 -52 73 -52 q 40 -27 40 -52 q 49 -9 40 -16 q 159 355 159 89 q 119 680 159 534 q 18 898 75 844 q 9 916 9 906 q 34 941 9 941 q 50 935 43 941 q 150 689 94 892 q 193 355 193 529 q 81 -46 193 54 z "},"*":{"ha":395,"x_min":25,"x_max":377,"o":"m 208 312 q 219 293 219 304 q 192 268 219 268 q 168 307 166 268 q 170 317 168 310 q 173 328 173 323 q 173 393 173 349 q 172 467 172 462 q 52 394 92 422 q 26 406 26 376 q 37 441 26 422 q 61 459 47 459 q 77 451 69 459 q 154 495 103 467 q 39 557 72 549 q 25 573 25 560 q 46 590 25 595 q 172 523 85 581 q 153 672 171 618 q 151 682 151 677 q 176 705 151 705 q 199 688 193 705 q 213 528 214 646 q 310 593 272 562 q 328 608 311 610 q 333 612 331 611 l 336 615 q 351 606 345 623 q 359 590 368 597 l 357 589 l 356 587 q 349 581 354 585 q 217 492 300 539 q 304 436 263 461 q 340 417 322 426 q 348 416 343 417 l 348 416 l 357 413 q 368 408 361 412 l 364 408 q 368 404 366 407 l 377 400 l 370 401 q 373 384 373 393 q 349 371 373 364 l 349 370 q 341 371 342 372 l 338 371 q 317 385 323 370 q 212 456 291 401 q 205 328 205 326 q 207 317 205 323 l 208 312 z "},"+":{"ha":453,"x_min":22,"x_max":435,"o":"m 245 43 q 223 60 225 40 q 225 257 218 104 q 52 229 121 246 q 45 228 49 228 q 22 254 22 228 q 41 277 22 272 q 227 300 111 294 q 213 429 227 376 q 212 437 212 433 q 237 460 212 460 q 260 442 255 460 q 272 302 275 387 q 414 313 365 307 q 435 295 435 316 q 419 277 435 279 q 269 261 381 272 q 261 158 266 227 q 264 65 259 104 q 245 43 266 45 z "},",":{"ha":186,"x_min":64,"x_max":167,"o":"m 98 -142 q 87 -145 93 -145 q 64 -120 64 -145 q 77 -99 64 -106 q 129 -22 129 -73 q 119 41 129 13 q 119 47 119 43 q 136 63 119 63 q 150 52 146 63 q 167 -22 167 3 q 98 -142 167 -107 z "},"-":{"ha":375,"x_min":-18,"x_max":353,"o":"m 269 238 l 267 238 l 246 238 q -2 245 104 238 q -18 260 -18 246 q 1 275 -18 276 q 246 269 86 269 l 247 269 q 327 282 287 269 q 334 283 330 283 q 353 265 353 283 q 340 250 353 254 q 269 238 313 241 z "},"‐":{"ha":375,"x_min":-18,"x_max":353,"o":"m 269 238 l 267 238 l 246 238 q -2 245 104 238 q -18 260 -18 246 q 1 275 -18 276 q 246 269 86 269 l 247 269 q 327 282 287 269 q 334 283 330 283 q 353 265 353 283 q 340 250 353 254 q 269 238 313 241 z "},".":{"ha":180,"x_min":61,"x_max":130,"o":"m 88 62 q 107 66 92 67 q 128 59 122 65 q 130 49 130 57 q 122 14 130 32 q 98 -7 112 -7 q 62 28 75 -7 q 61 35 61 31 q 81 66 61 66 q 88 62 85 66 z "},"/":{"ha":323,"x_min":9,"x_max":311,"o":"m 275 924 l 270 918 q 276 942 271 926 q 276 969 276 955 l 281 951 q 294 959 286 960 q 308 947 304 958 l 311 951 l 309 941 q 283 772 309 871 q 238 606 260 689 q 47 -96 140 151 q 30 -109 43 -109 q 9 -89 9 -109 q 11 -81 9 -85 q 205 614 115 197 q 250 777 220 668 q 275 924 271 855 z "},":":{"ha":182,"x_min":56,"x_max":142,"o":"m 128 290 q 90 269 118 269 q 56 319 56 269 q 57 326 56 321 q 57 332 57 330 q 72 349 57 349 q 87 332 87 349 q 87 326 87 330 q 87 318 87 321 q 90 301 87 305 q 94 312 94 301 q 96 331 95 319 q 118 349 101 349 q 142 325 142 349 q 128 290 142 319 m 98 123 q 132 83 132 115 q 96 53 132 53 q 60 92 60 53 q 71 143 60 99 q 86 156 74 156 q 102 135 107 156 q 98 123 101 132 z "},";":{"ha":193,"x_min":35,"x_max":168,"o":"m 111 350 l 109 348 l 111 349 l 111 350 m 134 315 q 83 309 121 309 q 58 330 58 309 q 68 361 58 346 q 90 394 77 376 q 107 404 96 404 q 131 379 131 404 q 130 372 131 375 q 155 359 147 376 q 134 315 168 332 m 127 133 q 130 101 127 123 q 134 64 134 79 q 71 -64 134 11 q 56 -72 64 -72 q 35 -52 35 -72 q 40 -39 35 -45 q 94 64 94 26 q 90 101 94 79 q 87 133 87 123 q 106 153 87 153 q 127 133 127 153 z "},"<":{"ha":378,"x_min":-12,"x_max":350,"o":"m 54 244 q 182 127 76 229 q 315 37 267 47 q 329 20 329 35 q 308 3 329 -2 q 151 111 248 14 q 80 181 92 170 q -1 238 35 222 q -12 254 -12 243 q 3 269 -12 267 l -1 269 q 165 382 81 315 q 309 509 194 407 q 325 515 316 515 q 350 490 350 515 q 341 471 350 479 q 203 351 230 373 q 54 244 123 284 z "},"=":{"ha":359,"x_min":-3,"x_max":339,"o":"m 14 273 q -2 290 -2 274 q 16 306 -2 307 q 161 310 54 304 q 320 316 279 316 q 339 298 339 316 q 320 279 339 279 q 160 275 282 279 q 14 273 54 272 m 32 157 q 21 154 26 154 q -3 178 -3 154 q 12 199 -3 193 q 148 220 49 216 q 292 222 220 221 q 311 205 311 223 q 294 188 311 189 q 159 181 178 183 q 32 157 70 174 z "},">":{"ha":379,"x_min":-7,"x_max":366,"o":"m 102 26 q 21 -39 51 -19 q 11 -42 16 -42 q -7 -22 -7 -42 q 1 -8 -7 -14 q 157 125 38 17 q 317 240 251 212 q 235 302 290 262 q 106 384 171 343 q 6 488 20 445 q 0 502 3 495 q 3 507 -1 505 q 14 513 9 516 q 31 514 24 528 l 33 507 q 37 498 35 504 q 35 494 37 496 l 33 492 q 137 404 73 448 q 253 330 195 367 q 309 287 259 326 q 357 253 355 252 l 366 218 q 228 138 313 208 q 102 26 165 82 z "},"?":{"ha":625,"x_min":-3,"x_max":631,"o":"m 256 333 q 189 243 189 275 q 209 234 189 234 q 229 214 229 234 q 209 195 229 195 q 152 243 152 195 q 275 397 152 293 q 468 547 372 472 q 595 736 595 657 q 390 875 595 875 q 157 825 258 875 q 31 651 31 764 q 61 593 31 622 q 66 581 66 588 q 49 564 66 564 q 37 568 43 564 q -3 651 -3 607 q 135 851 -3 779 q 390 910 248 910 q 631 736 631 910 q 486 514 631 642 q 256 333 371 424 m 224 45 q 195 86 195 84 q 200 102 195 96 q 197 111 197 106 q 229 132 197 132 q 267 88 267 132 q 260 50 267 71 q 242 32 254 32 q 224 45 233 32 z "},"@":{"ha":663,"x_min":-10,"x_max":711,"o":"m 243 248 q 296 269 245 248 q 404 376 371 298 q 420 388 409 388 q 435 367 439 388 q 412 284 427 343 q 428 221 399 221 q 505 307 475 221 q 527 433 527 372 q 491 548 527 505 q 387 593 453 593 q 144 462 266 593 q 23 202 23 332 q 111 52 23 105 q 293 7 186 7 q 518 56 412 7 q 674 209 644 113 q 691 222 678 222 q 711 204 711 222 q 709 198 711 201 q 538 28 675 91 q 293 -26 421 -26 q 90 27 174 -26 q -10 202 -10 90 q 121 485 -10 344 q 387 625 252 625 q 516 569 469 625 q 559 433 559 516 q 532 285 559 357 q 428 189 494 189 q 376 250 376 189 q 378 280 376 264 q 265 220 334 241 q 210 246 210 203 q 272 378 210 311 q 402 449 336 449 q 423 446 413 449 q 436 431 436 444 q 416 414 436 410 q 402 416 410 416 q 298 358 352 416 q 243 248 244 301 z "},"A":{"ha":685,"x_min":-14,"x_max":705,"o":"m 144 227 q 514 286 266 250 l 486 378 q 426 563 456 471 q 380 751 392 673 q 275 483 345 630 q 144 227 243 414 m 184 198 q 123 186 163 195 q 24 -10 58 65 q -3 -17 12 -39 q -11 18 -14 1 q -13 28 -13 30 q 13 52 -13 54 q 66 157 35 98 q 50 151 55 153 q 26 165 26 147 q 35 180 26 174 q 97 216 60 205 q 251 511 222 451 q 362 823 332 684 q 345 849 344 829 q 350 863 347 852 l 350 866 q 355 889 346 878 q 382 908 363 896 q 401 912 394 914 q 408 893 410 909 q 404 858 406 876 q 409 827 408 844 q 412 761 408 805 q 520 389 426 695 q 551 290 538 328 q 685 298 619 295 q 705 279 705 298 q 687 260 705 260 q 563 252 625 257 q 682 -49 622 73 q 684 -58 684 -54 q 663 -78 684 -78 q 646 -66 652 -78 q 526 249 587 53 q 184 198 342 233 z "},"B":{"ha":827,"x_min":8,"x_max":810,"o":"m 102 811 q 100 779 101 800 q 96 676 98 738 q 155 684 116 678 l 205 693 q 254 697 226 697 q 362 722 315 707 q 529 823 529 777 q 372 875 529 875 q 102 811 212 875 m 65 46 l 65 43 q 81 23 81 37 q 67 -3 81 8 q 50 -9 59 -9 q 28 28 28 -9 q 28 56 28 41 l 26 56 q 8 81 8 61 q 22 97 8 97 q 26 96 24 97 l 30 96 q 51 425 39 210 q 66 794 53 553 q 43 820 43 797 q 50 836 43 829 q 33 868 24 842 q 73 893 58 893 q 99 865 90 893 q 372 907 193 907 q 562 823 562 907 q 372 690 562 753 q 651 597 521 677 q 810 359 810 499 q 780 206 810 264 q 620 53 739 125 q 388 -10 518 -10 q 65 46 285 -10 m 86 423 q 66 86 79 308 q 388 26 292 26 q 600 83 507 26 q 748 223 709 151 q 776 359 776 275 q 620 575 776 484 q 337 656 481 656 q 296 659 326 656 q 250 663 266 663 q 151 650 217 659 l 115 646 q 94 642 111 645 q 86 423 91 566 z "},"C":{"ha":957,"x_min":-3,"x_max":986,"o":"m 436 12 q 134 109 261 12 q -3 387 -3 216 q 191 757 -3 594 q 590 912 376 912 q 778 858 745 912 q 781 846 781 852 q 755 822 781 822 q 736 833 743 822 q 590 878 709 878 q 214 730 389 878 q 32 387 32 577 q 156 136 32 233 q 436 46 273 46 q 724 97 581 46 q 952 258 892 157 q 967 267 958 267 q 986 249 986 267 q 983 239 986 244 q 741 66 918 132 q 436 12 589 12 z "},"D":{"ha":975,"x_min":-23,"x_max":965,"o":"m 130 883 q 113 852 138 857 l 120 62 q 254 10 161 30 q 391 -5 330 -5 q 749 92 593 -5 q 932 400 932 207 q 897 551 932 482 q 804 678 871 599 q 217 886 629 886 q 130 883 161 886 m 96 22 q 71 47 71 22 l 71 50 q 43 98 47 73 q 51 119 42 112 q 72 125 60 127 l 79 875 q 12 851 46 867 q 1 848 7 848 q -23 874 -23 848 q -9 896 -23 889 q 217 935 75 935 q 830 699 630 935 q 926 566 899 617 q 965 400 965 490 q 772 68 965 191 q 391 -38 606 -38 q 256 -23 333 -38 q 107 25 163 -5 q 96 22 102 22 z "},"E":{"ha":646,"x_min":-8,"x_max":654,"o":"m 149 -15 q 33 142 33 -15 q 71 623 33 229 q 50 614 52 614 q 33 633 33 614 q 74 661 33 646 q 84 823 82 751 q 71 827 77 823 q 55 825 62 826 q -8 852 -8 819 q 20 880 -8 873 l 20 877 q 35 883 27 883 q 54 861 54 883 l 62 861 q 106 896 85 896 q 117 878 117 896 l 117 871 q 125 873 121 872 q 394 908 216 886 q 578 926 456 916 q 597 909 597 927 q 581 892 597 893 q 397 874 516 886 q 127 838 307 860 q 117 837 125 838 q 108 671 115 764 q 297 697 184 692 q 488 705 393 701 q 631 724 575 710 q 654 706 654 730 q 640 689 654 692 q 339 663 572 672 q 105 635 181 658 q 81 388 93 511 q 67 142 67 244 q 149 19 67 19 q 385 86 227 19 q 607 197 514 141 q 616 200 612 200 q 634 182 634 200 q 625 167 634 172 q 395 53 530 109 q 149 -15 231 -15 z "},"F":{"ha":586,"x_min":-5,"x_max":684,"o":"m 62 33 q 84 9 84 31 q 59 -16 84 -16 q 44 16 55 -16 q 33 71 33 48 q 48 616 33 219 q 28 618 38 616 q 13 635 13 619 q 32 652 13 654 q 50 650 41 651 l 53 742 q 51 800 54 774 q 9 808 27 800 q -5 825 -5 813 q 13 841 -5 839 l 41 844 l 41 844 q 38 856 38 850 q 64 880 38 880 q 91 850 84 880 q 374 878 233 864 q 652 933 535 899 q 660 935 656 935 q 684 909 684 935 q 666 886 684 891 q 382 836 551 851 q 96 814 239 825 q 86 649 98 772 q 599 713 279 647 q 621 695 621 718 q 606 678 621 681 q 83 614 287 612 l 83 605 q 68 71 68 332 q 62 33 68 74 z "},"G":{"ha":841,"x_min":6,"x_max":838,"o":"m 343 1 q 108 88 201 1 q 6 345 6 183 q 189 753 6 578 q 586 913 368 924 q 669 907 653 909 q 747 879 710 901 q 761 856 761 871 q 736 828 761 828 q 724 831 730 828 q 585 877 650 873 q 212 727 380 887 q 41 345 41 564 q 131 117 41 201 q 343 38 214 38 q 592 92 494 38 q 745 216 640 118 l 745 218 q 747 420 745 256 q 693 418 724 418 q 618 422 667 419 q 555 425 572 425 q 538 441 538 425 q 555 458 538 458 q 748 467 705 458 l 748 479 q 765 495 748 495 q 781 479 782 495 l 781 475 q 813 488 817 488 q 838 461 838 488 q 826 441 838 448 q 779 425 808 430 q 777 226 776 290 q 779 194 798 211 l 778 193 q 799 -41 778 45 q 787 -61 802 -58 q 766 -50 770 -65 q 745 163 749 25 q 576 39 639 67 q 343 1 493 1 z "},"H":{"ha":694,"x_min":-12,"x_max":730,"o":"m 583 37 l 583 45 l 582 43 l 583 36 l 583 37 m 48 869 q 52 890 48 878 q 54 911 50 901 q 71 927 56 927 q 88 913 85 927 l 88 913 l 88 911 q 93 891 89 904 q 98 869 98 879 q 90 851 98 858 q 82 627 92 762 q 68 404 70 454 q 330 421 167 398 q 594 459 462 440 q 595 500 595 479 q 593 572 595 501 q 593 710 593 651 q 596 919 591 906 q 612 932 600 932 q 630 920 623 932 q 644 899 644 913 q 628 873 644 881 q 627 684 626 801 q 630 500 630 529 q 630 463 630 481 q 711 469 675 467 q 730 450 730 469 q 712 431 730 432 q 629 425 677 430 q 619 168 625 343 q 619 54 619 168 l 619 35 l 621 18 q 630 -3 630 11 q 624 -34 629 -14 q 613 -49 624 -45 q 588 -37 595 -59 q 581 -3 587 -35 q 583 9 581 3 q 583 36 583 22 l 578 27 l 582 43 q 582 79 582 71 l 582 80 l 582 81 q 583 83 583 82 q 583 169 583 144 q 593 420 587 252 q 330 376 462 398 q 66 355 170 351 l 66 332 q 90 8 65 135 q 73 -14 94 -14 q 56 1 58 -14 q 33 332 33 118 q 33 357 33 344 q 7 361 19 359 q -12 385 -12 365 q 17 410 -12 415 q 34 407 25 408 q 47 629 35 452 q 56 850 58 765 q 48 869 48 857 z "},"I":{"ha":163,"x_min":31,"x_max":132,"o":"m 54 101 q 59 388 54 197 q 65 673 65 578 q 63 839 65 825 q 51 836 56 836 q 31 862 31 836 q 45 884 31 881 q 56 887 50 884 q 68 897 62 897 q 87 871 79 897 q 98 785 97 840 q 98 726 98 762 q 97 673 97 679 q 92 388 97 578 q 87 101 87 197 q 87 79 87 95 q 86 62 85 67 q 98 56 87 50 q 109 59 104 59 q 132 33 132 59 q 118 11 132 18 q 93 4 104 4 q 54 101 54 4 z "},"J":{"ha":630,"x_min":-36,"x_max":570,"o":"m 564 366 q 565 312 564 354 q 567 243 567 271 q 444 3 567 3 q 166 114 321 3 q -34 332 18 220 q -36 340 -36 336 q -16 359 -36 359 q 1 347 -4 359 q 189 145 48 245 q 444 41 334 41 q 530 245 530 41 q 529 316 530 274 q 527 366 527 357 q 530 503 527 409 q 534 648 534 602 q 515 876 534 791 q 498 836 511 867 q 476 821 492 821 q 450 844 450 821 q 452 854 450 850 q 490 911 462 878 q 525 935 511 935 q 538 922 534 935 q 570 648 570 819 q 567 503 570 602 q 564 366 564 409 z "},"K":{"ha":625,"x_min":14,"x_max":704,"o":"m 110 577 q 92 369 104 507 q 143 399 123 384 q 324 589 216 452 q 427 720 427 719 q 505 865 483 796 q 496 880 496 869 q 505 895 495 890 q 510 897 507 896 l 511 898 l 515 901 q 533 909 522 909 q 547 895 547 909 q 546 888 547 891 q 467 717 527 806 q 351 568 450 692 q 112 340 209 388 q 355 163 201 267 q 530 41 408 125 q 615 -14 560 20 q 665 -27 654 -35 q 679 -23 672 -23 q 704 -49 704 -23 q 672 -74 704 -74 q 492 16 621 -74 q 334 133 413 75 q 90 313 187 233 q 90 294 90 303 l 90 107 q 86 96 90 100 l 86 92 q 100 12 85 32 q 104 1 104 7 q 85 -18 104 -18 q 71 -10 77 -18 q 50 78 50 17 q 53 128 50 95 q 55 178 55 161 l 55 294 q 56 322 55 307 q 14 357 14 319 q 16 370 14 362 q 19 382 19 378 q 33 401 19 401 q 48 395 41 401 l 59 385 q 76 578 66 446 q 66 886 82 792 q 91 916 61 916 q 114 895 111 916 q 118 829 118 873 q 118 787 118 810 q 117 741 117 752 q 110 577 114 680 z "},"L":{"ha":675,"x_min":17,"x_max":688,"o":"m 105 -31 q 59 -24 84 -31 q 28 1 25 -15 q 56 294 47 107 q 54 830 66 536 q 35 874 52 870 q 17 897 17 879 q 41 923 17 923 q 47 922 44 923 q 95 821 95 910 q 92 765 95 802 q 90 721 90 732 q 96 477 96 599 q 66 11 96 195 q 105 5 90 5 q 660 97 479 5 q 669 99 665 99 q 688 79 688 99 q 677 62 688 68 q 105 -31 494 -31 z "},"M":{"ha":861,"x_min":8,"x_max":865,"o":"m 47 -26 q 30 -41 45 -41 q 12 -20 8 -41 q 83 881 83 372 q 83 899 77 890 l 83 909 q 100 926 83 926 q 117 909 117 926 l 117 892 q 149 795 138 862 q 162 694 155 745 q 326 77 186 579 q 419 391 348 224 q 558 686 422 397 q 613 801 585 744 q 642 923 642 868 q 660 941 642 941 q 677 926 674 941 q 764 444 702 764 q 829 210 796 327 q 865 -27 865 73 q 844 -49 865 -49 q 823 -27 823 -49 q 789 206 823 71 q 728 435 759 320 q 659 820 703 540 q 590 671 654 806 q 484 452 537 562 q 394 229 424 325 q 353 -12 356 104 q 336 -31 353 -31 q 320 -18 324 -31 q 129 686 183 422 q 116 788 125 719 q 47 -26 109 314 z "},"N":{"ha":578,"x_min":32,"x_max":546,"o":"m 82 98 q 79 81 79 83 q 69 68 77 73 q 54 64 61 64 q 32 94 32 64 q 37 111 32 104 q 60 273 47 165 q 68 548 70 385 q 62 828 64 688 q 55 843 54 833 q 56 887 57 872 q 71 908 54 908 q 87 898 81 908 q 136 786 113 857 q 175 670 168 688 q 488 -12 341 270 q 498 341 489 93 q 507 691 507 564 l 508 930 q 527 949 508 949 q 546 930 546 949 l 545 691 q 535 304 545 562 q 525 -88 525 46 q 507 -109 525 -109 q 489 -98 495 -109 q 143 657 347 165 q 95 802 127 706 q 100 626 96 753 q 103 452 103 516 q 96 270 103 351 q 82 98 93 213 z "},"O":{"ha":739,"x_min":7,"x_max":733,"o":"m 406 855 l 408 854 q 388 833 404 833 q 359 861 360 833 q 278 787 326 844 q 208 699 243 743 q 42 297 42 490 q 298 16 42 16 q 571 121 449 16 q 697 376 697 229 q 600 629 697 483 q 432 817 517 754 q 422 837 422 825 q 447 863 422 863 q 462 857 454 863 q 635 652 549 791 q 733 376 733 493 q 594 94 733 212 q 298 -20 462 -20 q 81 62 155 -20 q 7 297 7 144 q 182 720 7 500 q 270 829 260 817 q 382 899 336 899 q 415 879 415 899 q 408 858 415 874 l 408 857 q 406 855 407 857 z "},"P":{"ha":672,"x_min":17,"x_max":680,"o":"m 111 827 q 92 435 109 708 q 239 419 157 419 q 507 499 383 419 q 646 720 646 589 q 568 840 646 783 q 370 891 496 891 q 196 869 262 891 q 185 861 192 867 l 182 858 q 149 845 173 848 q 111 827 124 842 m 78 57 q 82 29 78 47 q 87 3 87 12 q 70 -16 90 -16 q 52 1 54 -16 q 47 28 52 9 q 43 57 43 46 q 56 408 43 197 q 17 435 17 421 q 35 455 17 455 q 58 446 37 455 q 77 778 66 555 q 64 774 71 774 q 38 798 38 774 q 43 812 38 806 q 78 848 57 834 q 78 894 78 871 q 95 911 78 911 q 111 894 111 911 l 111 869 q 161 899 127 882 q 186 900 170 898 q 370 924 257 924 q 587 866 507 924 q 648 803 622 841 q 680 720 680 758 q 530 473 680 574 q 239 382 395 382 q 90 398 158 382 q 78 57 78 195 z "},"Q":{"ha":772,"x_min":3,"x_max":769,"o":"m 453 79 q 446 106 450 94 q 380 399 386 283 q 397 420 378 420 q 417 380 424 420 q 417 361 424 370 q 477 117 426 272 q 486 90 481 105 q 665 218 600 130 q 735 435 735 311 q 608 712 735 574 q 361 848 484 848 q 345 847 353 848 q 328 852 335 846 q 168 674 249 794 q 63 469 91 560 q 37 302 37 383 q 123 119 37 183 q 323 62 201 62 q 453 79 391 62 m 513 1 q 540 -24 540 5 q 536 -38 540 -33 q 517 -74 540 -74 q 498 -60 507 -74 q 462 46 479 -26 q 323 28 395 28 q 103 92 191 28 q 3 302 3 165 q 31 478 3 384 q 152 709 64 583 q 334 897 247 844 q 391 937 352 911 q 403 940 397 940 q 427 913 427 940 q 414 892 427 900 l 410 891 q 653 718 540 860 q 769 435 769 574 q 692 196 769 298 q 495 56 619 100 q 513 1 505 22 z "},"R":{"ha":725,"x_min":5,"x_max":811,"o":"m 87 826 q 100 597 97 720 q 423 704 236 614 q 496 734 460 719 q 547 786 543 757 q 457 850 551 827 q 332 867 390 867 q 87 826 139 867 m 100 9 q 82 -9 100 -9 q 64 9 64 -9 q 67 202 64 71 q 70 393 70 334 q 68 557 70 484 q 34 556 51 556 q 5 592 5 556 q 28 619 5 619 q 67 608 47 619 q 56 806 64 713 q 33 831 33 807 q 52 860 33 844 l 51 867 q 34 899 26 874 q 54 922 40 907 q 79 912 76 941 q 83 879 81 896 q 210 901 128 899 q 332 899 165 899 q 481 877 408 899 q 579 782 587 844 q 524 711 574 739 q 438 673 481 692 q 121 564 254 585 q 410 296 216 473 q 591 138 500 217 q 779 -11 697 46 l 781 -10 q 785 -11 780 -10 l 787 -11 q 806 -23 800 -12 q 805 -45 811 -34 q 772 -56 794 -68 q 757 -44 767 -52 q 568 108 675 12 q 387 269 477 189 q 111 525 298 355 q 102 532 107 528 q 102 393 102 469 q 101 202 102 334 q 100 9 100 71 z "},"S":{"ha":642,"x_min":-1,"x_max":620,"o":"m 561 50 q 273 -30 460 -30 q 103 15 176 -30 q 5 156 20 66 q -1 222 -1 192 q 0 291 -1 277 q 24 315 1 315 q 49 290 50 315 q 47 255 49 280 q 46 222 46 233 q 98 66 46 112 q 273 9 162 9 q 537 80 447 9 q 578 149 578 113 q 511 298 578 235 q 361 392 465 341 q 209 475 307 417 q 138 592 138 526 q 273 812 138 701 q 475 919 391 909 q 496 922 484 926 q 616 749 594 890 q 595 721 620 724 q 568 741 571 717 q 481 875 550 852 q 467 885 472 878 q 279 772 384 873 q 172 592 172 669 q 260 478 172 531 q 401 411 331 445 q 616 149 616 301 q 561 50 616 94 z "},"T":{"ha":717,"x_min":-26,"x_max":777,"o":"m 273 826 q 252 830 261 823 q 190 822 218 827 q 106 798 168 819 q 22 781 55 781 q -7 783 7 781 q -26 807 -26 787 q 3 832 -26 838 q 33 829 17 829 q 109 841 62 829 q 184 859 171 857 q 249 868 215 864 l 249 869 q 273 895 256 895 q 300 873 288 895 q 507 890 404 882 q 713 914 631 899 q 749 926 738 919 q 759 928 754 928 q 777 909 777 928 q 718 875 777 885 q 666 868 714 874 q 311 837 547 858 q 307 787 312 819 q 302 736 302 751 q 281 58 302 286 q 270 4 277 25 l 268 -1 q 267 -3 266 -3 q 281 -24 281 -9 q 258 -51 281 -51 q 247 -48 252 -51 q 227 -11 227 -40 q 240 53 227 3 q 264 736 264 149 q 269 781 264 751 q 273 826 273 812 z "},"U":{"ha":764,"x_min":20,"x_max":758,"o":"m 751 610 q 728 335 758 436 q 542 80 688 191 q 248 -31 395 -31 q 53 112 105 -31 q 20 374 20 200 q 36 639 20 378 q 28 890 46 819 q 45 911 23 911 q 60 898 57 911 q 71 641 79 821 q 56 374 56 368 q 87 124 56 206 q 248 5 130 5 q 520 109 383 5 q 694 345 656 213 q 708 618 715 419 q 700 768 708 627 q 698 893 695 850 q 722 916 699 916 q 747 890 749 916 q 751 610 744 846 z "},"V":{"ha":669,"x_min":-3,"x_max":667,"o":"m 28 851 q 22 850 25 850 q -3 876 -3 850 q -1 911 -3 904 q 14 929 3 929 q 28 924 20 929 q 174 431 70 895 q 247 65 201 310 q 310 212 266 123 q 378 355 364 321 q 524 687 426 463 q 562 801 537 716 q 605 912 583 873 q 644 942 621 942 q 667 919 667 942 q 638 894 667 888 q 595 784 616 855 q 557 672 569 701 q 411 342 509 566 q 320 152 366 247 q 260 -45 265 34 q 242 -62 258 -62 q 224 -45 226 -62 q 140 423 210 110 q 44 803 92 637 q 28 851 37 825 z "},"W":{"ha":815,"x_min":-14,"x_max":799,"o":"m 517 75 q 555 199 530 116 q 758 910 628 445 q 778 927 762 927 q 799 907 799 927 q 798 900 799 903 q 592 188 777 820 q 552 55 572 121 q 528 -81 531 -22 q 511 -98 528 -98 q 494 -82 495 -98 q 334 796 463 245 q 224 424 279 610 q 146 43 163 207 q 129 27 144 27 q 113 43 114 27 q 71 497 102 199 q 28 718 55 576 q 23 769 26 743 q 3 810 17 809 q -14 826 -14 811 q 5 843 -14 844 q 62 755 53 840 q 65 723 63 743 q 108 502 82 645 q 137 212 120 418 q 224 550 163 346 q 323 885 309 835 q 335 899 326 899 q 350 880 346 899 q 445 476 397 678 q 517 75 494 255 z "},"X":{"ha":591,"x_min":-12,"x_max":601,"o":"m 521 8 q 495 5 509 -6 q 224 424 391 88 l 219 433 q 96 233 124 285 q 22 25 32 113 q 7 10 21 10 q -10 28 -12 10 q 71 255 1 125 q 201 469 91 293 q 31 835 136 611 q 25 841 28 838 q 18 864 22 848 l 16 867 q 27 889 6 888 q 44 884 37 893 l 64 871 q 64 841 76 855 q 222 502 111 737 l 232 519 q 385 756 313 655 q 479 879 420 804 q 573 979 559 977 q 601 955 601 983 q 580 930 601 934 q 464 801 563 928 q 335 623 373 684 q 261 503 292 555 q 239 466 252 486 l 250 445 q 517 35 412 119 q 521 8 532 23 z "},"Y":{"ha":528,"x_min":-8,"x_max":537,"o":"m 264 -9 q 263 24 264 3 q 262 60 262 45 q 255 382 262 65 q 256 411 255 385 q 91 545 153 412 q 32 787 43 646 q 26 841 29 822 q 11 886 20 884 q -8 910 -8 890 q 16 935 -8 935 q 22 935 18 935 q 57 890 53 928 q 62 791 60 841 q 74 697 65 757 q 134 543 95 610 q 258 445 191 445 q 384 510 324 445 q 461 662 443 574 q 488 785 474 724 q 493 941 496 838 q 514 965 492 965 q 535 940 537 965 q 290 414 505 448 q 292 383 291 404 q 298 60 298 65 q 300 24 298 45 q 301 -9 301 3 q 283 -28 301 -28 q 264 -9 264 -28 z "},"Z":{"ha":755,"x_min":-19,"x_max":793,"o":"m 427 54 q 209 50 247 54 q 12 -22 73 37 l 9 -24 l 9 -23 q 0 -26 5 -26 q -19 -7 -19 -26 q -15 4 -19 -1 l -15 4 l -13 6 q 234 296 108 106 q 444 616 339 456 q 566 744 486 673 q 696 863 684 851 l 568 863 q 211 846 345 865 q 143 833 194 844 q 84 827 109 827 q 39 830 63 827 q 18 854 18 833 q 46 879 18 883 q 206 878 125 867 q 568 897 330 896 l 736 897 q 751 893 747 897 q 754 880 756 888 q 680 800 749 863 q 570 703 625 752 q 472 595 509 646 q 296 327 437 548 q 106 69 190 161 q 272 91 173 87 q 427 91 267 91 q 604 80 481 91 q 767 72 717 70 q 793 47 793 73 q 769 22 793 24 q 598 36 709 20 q 427 54 479 54 z "},"[":{"ha":195,"x_min":9,"x_max":189,"o":"m 160 918 q 163 923 161 920 q 189 898 189 923 q 165 873 189 873 q 146 879 153 873 q 43 857 83 860 l 44 5 q 147 9 71 9 q 165 -9 165 9 q 147 -28 165 -28 q 30 -34 58 -28 q 9 -16 9 -38 l 10 873 q 26 890 10 890 q 160 918 71 892 z "},"\\":{"ha":407,"x_min":13,"x_max":448,"o":"m 433 -106 q 408 -103 419 -117 q 304 117 350 -31 q 230 354 267 235 q 105 637 168 495 q 15 922 25 824 q 31 939 13 939 q 47 925 45 939 q 138 646 57 831 q 261 366 199 506 q 335 135 298 251 q 436 -79 382 -11 q 433 -106 448 -94 z "},"]":{"ha":195,"x_min":-27,"x_max":213,"o":"m 174 241 q 157 136 173 222 q 144 18 144 59 q 153 -39 144 -17 q 138 -62 161 -62 q -6 -70 31 -62 q -27 -52 -27 -74 q -13 -35 -27 -38 q 116 -28 25 -27 q 111 26 111 -3 q 123 136 111 66 q 141 244 139 216 q 152 568 147 316 q 173 898 155 781 q 141 896 163 897 q 37 880 107 888 q 12 905 12 880 q 35 930 12 929 q 140 928 70 928 q 166 931 149 929 q 193 933 182 933 q 210 913 213 933 q 185 575 189 793 q 174 241 180 309 z "},"^":{"ha":303,"x_min":9,"x_max":336,"o":"m 325 740 q 300 736 315 726 q 168 875 251 772 q 65 766 134 820 q 46 743 60 757 q 33 739 39 739 q 9 764 9 739 q 21 784 9 777 q 45 791 31 785 q 149 911 125 854 q 177 916 159 938 q 245 836 211 876 q 321 764 285 791 q 325 740 336 753 z "},"_":{"ha":456,"x_min":0,"x_max":469,"o":"m 286 -10 q 105 -2 220 -7 q 64 -3 90 -1 q 24 -5 35 -5 q 0 17 0 -5 q 19 38 0 34 q 121 39 46 43 q 334 28 330 28 q 441 40 407 28 q 450 41 446 41 q 469 22 469 41 q 456 5 469 10 q 286 -10 403 -12 z "},"‘":{"ha":132,"x_min":27,"x_max":104,"o":"m 91 925 q 67 872 67 901 q 71 843 67 861 q 76 814 75 823 q 56 792 77 792 q 35 811 37 792 q 31 842 35 820 q 27 872 27 861 q 62 952 27 916 q 87 965 75 965 q 104 945 104 965 q 91 925 104 930 z "},"a":{"ha":564,"x_min":5,"x_max":578,"o":"m 509 486 q 501 488 505 487 q 479 508 500 489 q 477 510 478 509 q 178 418 294 510 q 42 149 54 321 q 96 27 33 27 q 323 211 170 27 q 509 486 453 365 m 240 72 q 94 -8 153 -8 q 5 127 5 -8 q 6 149 5 138 q 156 445 20 338 q 479 545 284 545 q 532 530 517 545 q 553 546 538 536 q 578 533 578 559 q 556 404 578 482 q 530 277 536 334 q 517 118 527 229 q 519 46 513 87 q 525 0 525 2 q 481 -17 524 -18 q 472 -11 471 -17 q 481 123 472 19 q 496 268 489 195 q 524 411 507 352 l 526 417 q 386 229 474 335 q 240 72 301 127 z "},"b":{"ha":487,"x_min":-13,"x_max":500,"o":"m 68 39 q 157 12 101 12 q 351 93 262 12 q 465 343 454 187 q 467 396 467 374 q 395 533 467 533 q 262 444 331 533 q 172 297 229 401 q 94 102 125 212 q 70 84 90 83 q 68 39 69 61 m 149 -24 q 63 -7 100 -24 q 47 -14 57 -14 q 27 7 27 -14 l 27 17 q -9 85 -3 44 q 17 113 -13 113 q 31 109 25 113 q 66 462 35 189 q 92 817 92 690 l 92 907 q 83 922 83 911 q 94 949 83 935 q 115 963 106 963 q 126 943 126 963 l 126 817 q 107 503 126 697 q 76 184 77 193 q 144 311 83 200 q 245 475 211 432 q 397 572 320 572 q 500 377 500 572 q 499 342 500 359 q 393 88 489 194 q 149 -24 292 -24 z "},"c":{"ha":568,"x_min":3,"x_max":609,"o":"m 150 -13 q 3 127 3 -13 q 119 382 3 242 q 359 530 240 530 q 404 523 382 530 q 425 507 425 526 l 425 460 q 407 444 425 444 q 389 460 389 444 l 389 492 q 360 496 376 496 q 148 364 260 496 q 39 127 39 235 q 150 21 39 21 q 391 94 264 21 q 579 262 513 165 q 592 269 584 269 q 609 254 609 269 q 606 245 609 249 q 407 66 536 141 q 150 -13 272 -13 z "},"d":{"ha":519,"x_min":9,"x_max":545,"o":"m 471 491 q 458 504 465 498 q 174 414 286 504 q 44 154 56 320 q 96 36 36 36 q 313 214 166 36 q 468 438 414 336 l 471 491 m 233 79 q 94 1 150 1 q 9 132 9 1 q 10 154 9 143 q 153 441 23 337 q 460 538 275 538 q 475 537 467 538 q 506 849 486 640 q 511 886 509 868 q 501 917 513 915 q 492 925 492 918 q 497 940 492 925 q 495 938 500 939 q 486 937 490 937 q 463 960 463 937 q 482 985 463 979 q 507 989 496 989 q 545 900 543 989 q 540 849 545 913 q 510 532 529 743 l 509 526 q 517 511 516 520 q 543 489 543 512 q 540 478 543 484 q 503 410 528 450 q 492 -20 498 296 q 466 -46 492 -46 q 443 -23 443 -46 q 461 348 446 118 q 233 79 340 178 z "},"e":{"ha":551,"x_min":3,"x_max":609,"o":"m 150 -13 q 3 127 3 -13 q 24 224 3 169 q 7 248 5 228 q 43 267 13 252 q 180 446 95 371 q 359 530 273 530 q 414 517 401 530 q 425 507 421 512 l 435 487 q 437 481 437 484 q 425 472 437 472 q 399 487 408 472 l 398 490 q 360 496 354 496 q 218 433 296 496 q 95 290 146 375 q 153 316 140 311 q 356 391 255 353 q 564 441 481 433 q 581 426 581 443 q 565 409 581 410 q 362 358 487 401 q 163 284 263 321 q 74 254 107 263 q 39 127 39 182 q 150 21 39 21 q 391 94 264 21 q 579 262 513 165 q 592 269 584 269 q 609 254 609 269 q 606 245 609 249 q 407 66 536 141 q 150 -13 272 -13 z "},"f":{"ha":281,"x_min":23,"x_max":415,"o":"m 214 810 q 142 476 153 732 q 326 528 202 496 q 346 512 344 530 q 330 490 347 494 q 141 439 292 485 q 137 342 140 404 l 99 -275 q 73 -300 98 -300 q 50 -275 48 -300 l 100 342 q 105 430 102 370 q 82 424 93 427 q 57 417 73 414 q 51 417 53 417 l 47 416 l 44 416 l 44 416 q 25 422 27 414 q 31 439 23 429 q 39 449 34 444 l 39 450 l 40 450 q 61 465 54 464 q 83 460 75 469 q 106 466 95 463 q 187 830 119 744 q 258 883 213 863 q 325 899 296 899 q 345 895 339 899 q 399 851 380 884 l 401 846 q 405 842 403 844 q 401 818 415 829 q 377 820 387 807 q 352 843 370 831 q 315 849 347 846 q 296 864 300 850 q 281 859 289 862 q 214 810 237 840 z "},"g":{"ha":550,"x_min":-252,"x_max":541,"o":"m 487 478 q 481 479 484 479 q 459 498 479 480 q 457 500 458 500 q 171 412 283 500 q 41 151 53 317 q 92 33 33 33 q 311 211 163 33 q 487 478 434 361 m 231 76 q 90 -1 147 -1 q 6 130 6 -1 q 7 151 6 140 q 151 437 20 334 q 459 535 273 535 q 516 509 513 535 q 541 486 541 509 q 538 475 541 481 q 404 270 509 404 q 231 76 304 144 m -204 -152 q -192 -201 -199 -176 q -172 -246 -186 -226 q -27 -359 -121 -319 q 159 -396 60 -396 q 211 -393 185 -396 q 393 -271 331 -380 q 450 -38 445 -181 q 505 465 469 472 q 515 401 515 463 q 503 188 515 342 q 489 -37 490 13 q 420 -294 483 -192 q 212 -427 347 -412 q 151 -431 182 -431 q -196 -264 -79 -431 q -227 -217 -218 -232 q -246 -164 -239 -193 q -224 -138 -252 -138 q -208 -153 -211 -138 l -204 -152 z "},"h":{"ha":414,"x_min":14,"x_max":399,"o":"m 85 203 q 352 586 216 502 q 361 589 357 589 q 389 553 378 589 q 399 414 399 517 q 372 -21 399 341 q 352 -41 371 -41 q 330 -18 329 -41 q 351 194 331 -12 q 363 414 363 330 q 354 545 363 518 q 82 102 210 439 q 64 39 66 62 q 62 17 64 33 q 50 -11 60 -6 q 39 -14 44 -14 q 19 25 24 -14 l 18 34 q 17 40 18 38 q 16 53 14 48 q 97 836 94 353 l 90 852 q 60 876 60 846 q 80 900 60 896 l 103 893 q 114 886 110 895 q 131 869 131 886 q 85 203 131 481 z "},"i":{"ha":178,"x_min":59,"x_max":140,"o":"m 111 602 q 98 595 105 595 q 81 616 81 595 q 94 642 81 622 l 88 640 q 70 659 70 636 q 84 680 70 677 q 121 687 114 687 q 137 665 140 687 q 111 602 132 627 m 120 85 q 93 4 113 20 q 83 1 88 1 q 66 14 73 1 q 60 41 59 28 q 83 69 61 68 q 92 173 90 108 q 91 511 95 307 q 108 532 91 532 q 123 515 122 532 q 124 174 127 283 q 120 85 124 146 z "},"j":{"ha":147,"x_min":-520,"x_max":102,"o":"m 58 423 q 50 446 46 431 q 57 459 50 453 l 58 460 q 61 467 60 463 q 79 484 62 484 q 95 467 96 484 q 98 440 98 460 q 96 428 98 435 q 68 -50 91 274 q -37 -322 46 -260 q -212 -370 -100 -370 q -344 -346 -269 -370 q -459 -294 -419 -323 q -520 -211 -520 -250 q -512 -189 -520 -199 q -492 -179 -504 -179 q -469 -203 -469 -179 q -475 -219 -469 -211 q -477 -224 -477 -221 q -450 -250 -477 -233 q -434 -260 -444 -254 q -329 -307 -399 -286 q -210 -328 -260 -328 q -60 -290 -112 -328 q 30 -49 17 -232 q 58 423 39 109 m 100 648 l 98 642 q 96 634 96 632 q 102 621 102 629 q 83 601 102 601 q 62 616 71 601 q 61 654 58 621 q 82 674 62 674 q 100 654 102 674 q 100 648 100 652 z "},"k":{"ha":431,"x_min":9,"x_max":544,"o":"m 319 489 l 323 494 q 345 504 333 504 q 358 491 358 504 q 356 481 358 487 q 106 262 332 404 q 201 182 109 260 q 355 45 278 114 q 521 -52 473 -52 q 544 -75 544 -53 q 517 -102 544 -102 q 309 30 454 -101 q 109 215 232 104 q 87 231 98 224 l 83 160 q 76 83 79 110 q 58 11 68 26 q 54 7 57 8 q 39 11 47 3 q 28 14 35 7 q 20 22 18 16 l 20 27 q 16 41 16 34 q 35 64 16 57 q 47 161 43 100 l 52 232 q 28 227 38 227 q 10 249 9 227 q 47 281 13 281 q 56 281 52 281 l 95 814 q 106 858 85 839 q 123 863 116 865 q 131 844 132 860 l 92 293 q 267 418 205 363 q 307 460 292 440 q 302 469 302 463 q 319 489 302 488 z "},"l":{"ha":170,"x_min":53,"x_max":157,"o":"m 55 12 l 71 237 q 104 528 73 257 q 117 818 124 705 q 136 837 117 837 q 151 822 150 837 q 137 529 157 709 q 104 237 107 269 l 94 71 q 103 68 98 73 q 106 60 108 64 q 87 20 102 49 q 60 -17 68 -17 q 55 12 53 -17 z "},"m":{"ha":576,"x_min":5,"x_max":557,"o":"m 91 245 q 203 439 136 352 q 224 470 208 445 q 315 542 273 542 q 362 434 362 542 q 357 304 362 374 l 376 351 q 430 473 418 451 q 522 553 475 553 q 551 496 546 553 q 557 426 557 421 q 551 208 554 268 q 536 -9 547 85 q 518 -26 534 -26 q 500 -5 498 -26 q 520 427 514 125 q 511 513 520 435 q 349 180 448 477 l 344 163 q 319 0 333 79 q 301 -15 316 -15 q 282 7 278 -15 l 283 10 q 278 23 278 15 q 307 172 278 81 q 325 434 325 318 q 315 505 325 490 q 268 469 296 505 q 232 416 250 442 q 82 113 146 304 q 54 30 75 84 l 52 10 q 34 -7 50 -7 q 16 9 17 -7 q 5 26 5 14 q 19 43 5 40 q 57 262 22 63 q 81 481 81 393 q 77 541 81 506 q 95 561 74 561 q 113 545 111 561 q 117 481 117 508 q 91 245 117 389 z "},"n":{"ha":389,"x_min":7,"x_max":380,"o":"m 39 9 q 18 7 29 2 q 9 26 7 12 q 37 187 13 63 q 53 355 53 275 q 39 484 53 423 q 58 506 35 506 q 75 492 72 506 q 90 355 90 427 q 85 262 90 307 q 292 537 180 448 q 334 557 317 557 q 379 452 371 557 q 380 325 380 441 q 368 20 380 223 q 349 2 366 2 q 331 22 330 2 q 343 325 343 224 q 330 519 343 481 q 224 412 288 494 q 111 233 158 326 q 51 27 47 109 q 39 9 52 13 z "},"o":{"ha":419,"x_min":10,"x_max":427,"o":"m 121 0 q 37 61 67 0 q 14 165 10 113 q 182 515 28 372 q 199 523 190 523 q 223 498 223 523 q 214 480 223 488 q 48 165 60 336 q 67 77 45 120 q 122 35 90 35 q 307 136 224 35 q 393 342 385 232 q 345 450 397 410 q 302 482 323 467 q 269 525 278 502 q 268 534 268 530 q 295 559 268 559 q 315 545 310 559 q 345 506 323 525 q 383 475 364 490 q 427 363 427 433 q 338 123 427 237 q 121 0 243 0 z "},"p":{"ha":518,"x_min":-24,"x_max":503,"o":"m 78 81 l 73 34 q 159 9 106 9 q 353 90 264 9 q 467 340 456 184 q 469 393 469 370 q 397 530 469 530 q 264 441 333 530 q 174 294 231 398 q 96 99 127 210 q 78 81 92 85 m 54 -158 q 41 -335 48 -246 q 20 -508 33 -444 q -2 -524 16 -524 q -18 -505 -20 -524 q -20 -487 -18 -500 q -23 -470 -22 -474 q -7 -439 -24 -446 q 19 -157 2 -342 q 35 8 26 -85 q -7 82 0 36 q 18 109 -11 109 q 40 91 37 109 q 43 79 41 85 q 84 522 58 221 q 101 538 85 538 q 117 522 118 538 q 90 206 106 380 q 146 307 109 240 q 247 473 213 429 q 399 569 322 569 q 503 374 503 569 q 501 340 503 356 q 395 85 490 191 q 151 -26 294 -26 q 68 -12 104 -26 l 54 -158 z "},"q":{"ha":519,"x_min":22,"x_max":555,"o":"m 477 431 q 498 471 482 446 l 502 478 q 495 480 498 478 q 473 498 494 480 q 471 500 473 500 q 186 411 298 500 q 57 151 69 317 q 109 33 49 33 q 326 211 179 33 q 477 431 429 336 m 378 -561 q 378 -554 377 -558 l 378 -551 q 378 -550 378 -551 q 373 -473 371 -502 l 419 169 q 433 288 425 241 q 246 75 327 150 q 106 -2 163 -2 q 22 129 22 -2 q 23 151 22 140 q 166 437 36 334 q 473 535 288 535 q 530 509 527 535 q 555 486 555 509 q 553 475 555 481 q 481 355 534 431 q 454 168 463 292 q 434 -151 446 67 q 414 -473 421 -369 q 410 -538 410 -532 q 415 -540 414 -538 l 416 -541 l 417 -541 q 425 -555 425 -544 q 397 -581 425 -581 q 377 -567 383 -581 q 377 -563 376 -565 l 378 -562 l 378 -561 z "},"r":{"ha":321,"x_min":16,"x_max":379,"o":"m 360 555 q 379 517 379 524 q 358 497 379 497 q 328 529 348 497 l 324 533 q 163 360 235 471 q 66 134 92 250 q 55 14 58 65 l 55 12 l 54 12 q 36 -3 52 -3 q 19 9 21 -3 l 19 9 l 19 12 q 34 153 16 77 q 67 531 68 435 l 56 532 q 52 548 45 532 q 88 583 68 583 q 98 565 98 583 q 86 301 103 458 q 307 574 173 484 q 334 590 311 595 q 346 593 340 593 q 367 572 367 593 q 360 555 367 562 z "},"s":{"ha":419,"x_min":1,"x_max":399,"o":"m 223 -9 q 8 90 33 -9 q 6 194 1 119 q 32 217 7 217 q 54 195 56 217 q 52 103 50 113 q 115 43 60 63 q 225 27 160 27 q 322 53 285 27 q 360 118 360 79 q 307 204 360 163 q 200 267 277 228 q 95 332 127 303 q 63 379 62 360 q 117 475 67 430 q 212 543 133 490 q 270 590 250 570 q 288 598 278 598 q 311 584 304 598 q 373 504 349 569 q 357 475 380 483 q 327 487 334 466 q 313 521 318 512 q 285 543 302 538 q 182 477 250 521 q 97 379 100 424 q 155 329 104 358 q 332 231 216 300 q 399 117 399 178 q 349 27 399 64 q 223 -9 298 -9 z "},"t":{"ha":308,"x_min":-20,"x_max":331,"o":"m 121 552 q 98 538 113 538 q 74 561 74 538 q 101 611 74 576 q 140 659 121 635 q 156 667 146 667 q 170 646 174 667 q 151 501 158 587 q 313 534 202 511 q 326 530 321 535 q 331 517 331 524 q 313 498 331 502 q 148 466 256 488 l 145 433 q 126 67 140 307 q 130 44 135 58 q 121 17 126 37 l 121 17 q 101 2 118 2 q 82 18 92 2 l 82 21 q 87 64 81 37 l 87 64 q 109 433 93 187 l 110 456 q 19 415 58 440 q 5 411 12 411 q -20 437 -20 411 q -5 456 -20 451 q 113 493 46 477 q 121 552 117 523 z "},"u":{"ha":419,"x_min":8,"x_max":410,"o":"m 371 216 q 374 94 370 163 q 377 96 376 96 q 385 52 383 96 q 379 -13 387 6 q 358 -28 373 -28 q 340 -9 340 -28 q 330 215 330 225 q 340 328 332 277 q 358 429 349 379 q 163 92 267 233 q 123 39 134 51 q 73 -5 100 13 l 62 -12 q 26 -24 42 -24 q 8 -2 8 -24 q 37 278 10 100 q 71 553 66 467 q 97 577 72 577 q 120 553 121 577 q 81 288 115 466 q 44 18 48 113 l 56 25 q 171 161 98 53 q 260 307 227 242 q 322 431 309 402 q 375 555 353 496 q 393 569 380 569 q 408 550 410 569 q 385 384 404 505 q 371 216 372 298 z "},"v":{"ha":357,"x_min":10,"x_max":388,"o":"m 168 -2 q 150 -17 162 -17 q 135 1 137 -17 q 70 357 117 123 q 37 442 66 374 q 11 528 12 499 q 37 555 10 555 q 60 532 59 555 q 77 450 62 500 q 103 368 90 408 q 160 69 130 260 q 249 307 205 188 q 352 538 302 447 q 369 549 358 549 q 388 532 388 549 q 385 522 388 526 q 271 262 332 424 q 168 -2 186 39 z "},"w":{"ha":499,"x_min":5,"x_max":541,"o":"m 517 469 q 456 250 502 383 q 385 34 399 83 q 372 -63 372 -16 q 351 -83 372 -83 q 336 -70 339 -83 q 245 444 254 222 q 171 230 221 380 q 144 118 170 224 q 106 9 128 50 q 88 -4 98 -4 q 73 13 76 -4 q 39 289 58 96 q 8 545 20 483 q 26 566 5 566 q 41 553 38 566 q 68 332 52 491 q 98 81 87 151 q 137 239 110 134 q 246 551 173 340 q 265 566 251 566 q 281 547 281 566 q 279 499 279 524 q 347 33 279 302 q 380 141 359 68 q 435 306 385 159 q 481 473 469 405 q 492 535 485 494 q 487 549 487 541 q 506 581 487 568 q 520 586 513 586 q 539 549 541 586 q 530 509 538 534 q 517 469 519 479 z "},"x":{"ha":365,"x_min":-37,"x_max":407,"o":"m 334 -66 q 309 -64 319 -78 q 170 176 235 33 q 9 2 114 118 q 12 -13 12 -5 q -8 -45 12 -45 q -28 -31 -18 -45 q -29 -8 -36 -20 q -27 14 -37 1 q 154 210 -14 30 q 101 349 123 280 q 77 430 89 389 q 37 502 58 484 q 31 514 31 507 q 49 533 31 533 q 60 529 55 533 q 106 450 86 507 q 134 361 120 406 q 180 239 153 301 q 352 483 303 374 q 338 505 338 490 q 346 522 338 514 q 397 549 372 549 q 407 540 407 549 q 405 528 407 535 q 195 204 358 384 q 338 -40 262 60 q 334 -66 349 -54 z "},"y":{"ha":390,"x_min":-239,"x_max":382,"o":"m 325 401 q 140 85 224 208 q 101 31 104 34 q 47 -1 75 -1 q 4 48 16 -1 q -2 122 -5 83 q 13 208 -1 145 l 39 328 q 60 476 60 431 q 54 511 60 501 q 51 520 51 515 q 69 537 51 537 q 82 530 77 537 q 92 475 92 513 q 64 286 92 418 q 33 122 35 144 q 49 35 27 35 q 111 104 63 35 q 304 437 199 232 q 332 489 314 454 q 340 545 336 517 l 340 545 l 341 548 q 361 565 345 565 q 378 549 375 565 l 378 547 l 378 547 l 378 546 q 369 485 382 517 q 360 230 357 385 q 361 -83 366 -10 q 255 -296 351 -212 q 33 -378 161 -378 q -119 -356 -50 -378 q -236 -277 -203 -330 q -239 -267 -239 -272 q -216 -245 -239 -245 q -201 -254 -206 -245 q 35 -338 -147 -338 q 230 -267 148 -338 q 323 -83 315 -195 q 327 43 327 -27 q 323 222 327 66 q 325 401 321 331 z "},"z":{"ha":469,"x_min":-14,"x_max":518,"o":"m 513 10 q 487 -6 507 -10 q 251 10 401 10 q 102 2 182 10 q 26 -54 65 -30 q 14 -58 20 -58 q -5 -39 2 -58 q -12 -6 -14 -16 q 88 39 -10 28 q 265 257 165 108 q 430 486 382 431 q 388 484 407 484 q 307 486 364 484 q 218 488 250 488 q 115 488 113 488 q 25 454 43 484 q 11 446 20 446 q -5 461 -5 446 q -3 470 -5 465 q 106 520 23 511 q 233 521 117 521 q 316 520 265 521 q 390 519 366 519 q 473 524 374 519 q 494 511 494 525 q 485 494 494 503 q 315 269 418 427 q 146 44 210 110 q 253 49 212 49 q 497 35 429 49 q 513 10 518 31 z "},"{":{"ha":202,"x_min":5,"x_max":171,"o":"m 63 686 q 107 553 63 637 q 151 428 151 469 q 99 370 151 388 q 139 301 139 328 q 90 185 139 256 q 40 76 40 115 q 134 -28 40 5 q 146 -45 146 -32 q 129 -64 146 -64 q 122 -63 125 -64 q 5 76 5 -22 q 55 197 5 126 q 104 301 104 267 q 62 357 104 309 q 44 385 46 376 q 62 400 40 400 q 118 428 118 400 q 74 544 118 458 q 30 686 30 630 q 63 828 30 755 q 149 927 98 906 q 155 928 152 928 q 171 911 171 928 q 161 897 171 901 q 90 810 119 879 q 63 686 63 748 z "},"|":{"ha":223,"x_min":90,"x_max":159,"o":"m 122 -126 q 129 -149 122 -135 q 136 -172 136 -163 q 113 -195 136 -195 q 92 -180 98 -195 q 90 -126 90 -172 q 108 257 90 1 q 127 642 127 512 q 127 701 127 648 q 128 787 128 746 q 119 920 128 899 q 117 928 117 924 q 133 944 117 944 q 146 935 142 944 q 159 642 159 907 q 140 257 159 512 q 122 -126 122 1 z "},"}":{"ha":300,"x_min":3,"x_max":274,"o":"m 71 -19 q 14 -9 37 -19 q 3 8 3 -4 q 21 28 3 28 q 29 26 25 28 q 71 20 44 20 q 178 39 131 20 q 238 113 238 64 q 157 249 238 165 q 75 396 75 332 q 107 465 75 437 q 74 500 74 481 q 154 638 74 551 q 234 781 234 726 q 166 867 234 837 q 55 904 111 886 q 39 926 39 911 q 62 952 39 952 q 73 950 67 952 q 200 897 186 905 q 267 781 267 854 q 230 677 267 730 q 157 591 220 662 q 108 500 108 536 q 151 490 108 490 q 170 471 170 490 q 157 454 170 460 q 112 396 112 433 q 193 264 112 348 q 274 113 274 180 q 200 11 274 48 q 71 -19 140 -19 z "},"~":{"ha":460,"x_min":8,"x_max":435,"o":"m 223 730 q 175 796 175 730 q 176 817 175 803 q 176 836 176 830 q 159 869 176 869 q 95 833 125 869 q 62 769 70 803 q 39 750 58 750 q 15 779 8 750 q 64 860 24 821 q 159 903 110 903 q 205 865 196 903 q 209 798 208 854 q 223 764 210 764 q 324 799 264 764 q 400 861 380 831 q 416 869 406 869 q 435 850 435 869 q 432 840 435 845 q 342 768 408 805 q 223 730 273 730 z "},"'":{"ha":62,"x_min":17,"x_max":68,"o":"m 63 826 q 41 798 68 798 q 20 818 24 798 q 26 888 17 838 q 37 930 36 938 q 52 947 36 947 q 66 932 66 947 q 63 826 62 897 z "},"`":{"ha":210,"x_min":0,"x_max":0,"o":""}}}
